<svg xmlns="http://www.w3.org/2000/svg" xmlns:xlink="http://www.w3.org/1999/xlink" version="1.1" id="Layer_1" x="0px" y="0px" style="enable-background:new 0 0 1280 800;" xml:space="preserve" viewBox="362.85 323.04 553.33 131.7">
<style type="text/css">
	.st0{clip-path:url(#SVGID_2_);fill:#172121;}
	.st1{clip-path:url(#SVGID_4_);fill:#99A6F7;}
	.st2{clip-path:url(#SVGID_6_);fill:#8DD3F7;}
	.st3{clip-path:url(#SVGID_8_);fill:#F7F8F8;}
	.st4{clip-path:url(#SVGID_10_);fill:#172121;}
	.st5{clip-path:url(#SVGID_10_);fill:#172020;}
	.st6{clip-path:url(#SVGID_12_);fill:#94A7F9;}
	.st7{clip-path:url(#SVGID_12_);fill:#99A6F7;}
	.st8{clip-path:url(#SVGID_14_);fill:#8DD3F7;}
	.st9{clip-path:url(#SVGID_16_);fill:#F7F8F8;}
	.st10{clip-path:url(#SVGID_18_);fill:#99A6F7;}
	.st11{clip-path:url(#SVGID_18_);fill:#8DD3F7;}
</style>
<g>
	<defs>
		<rect id="SVGID_15_" x="362.86" y="323.04" width="553.32" height="131.7"/>
	</defs>
	<clipPath id="SVGID_2_">
		<use xlink:href="#SVGID_15_" style="overflow:visible;"/>
	</clipPath>
	<path style="clip-path:url(#SVGID_2_);fill:#F7F8F8;" d="M789.46,364.25c0,0,54.67-87.59,74.31-7.39   c12.68,67.75,16.67,86.23,29.87,56.74c13.19-29.49-12.5-31.58-12.5-31.58h35.04c0,0-41.18,139.91-61.91-9.9   C840.78,296.92,789.46,364.25,789.46,364.25"/>
	<path style="clip-path:url(#SVGID_2_);fill:#F7F8F8;" d="M770.34,438.9h7.39c0.98,0,1.74-0.64,2.27-1.93l16.65-38.98   c0.26-0.64,0.49-1.27,0.68-1.88c0.19-0.61,0.38-1.23,0.57-1.88c0.08,0.61,0.15,1.22,0.23,1.85c0.08,0.62,0.17,1.24,0.28,1.85   l6.99,39.03c0.23,1.29,0.78,1.93,1.65,1.93h7.67l24.15-57.55h-7.27c-0.68,0-1.29,0.2-1.82,0.6c-0.53,0.4-0.91,0.9-1.14,1.51   l-14.54,37.04c-0.53,1.33-0.98,2.62-1.34,3.89c-0.36,1.27-0.73,2.51-1.11,3.72c-0.11-1.25-0.24-2.5-0.37-3.75   c-0.13-1.25-0.31-2.54-0.54-3.86l-6.42-37.27c-0.08-0.57-0.32-1.04-0.74-1.42c-0.42-0.38-1-0.57-1.76-0.57h-4.2   c-0.65,0-1.22,0.19-1.73,0.57c-0.51,0.38-0.88,0.85-1.11,1.42l-15.74,37.27c-0.53,1.33-1.03,2.61-1.51,3.83   c-0.47,1.23-0.94,2.45-1.39,3.66c-0.04-1.21-0.07-2.43-0.09-3.66c-0.02-1.23-0.12-2.51-0.31-3.83l-5.28-37.04   c-0.08-0.64-0.35-1.15-0.82-1.53c-0.47-0.38-1.09-0.57-1.85-0.57h-7.56L770.34,438.9z M738.22,436.88c3.6-1.88,6.71-4.42,9.35-7.64   c2.63-3.22,4.71-6.97,6.22-11.25c1.51-4.28,2.27-8.82,2.27-13.64c0-3.75-0.53-7.11-1.59-10.08c-1.06-2.97-2.54-5.48-4.43-7.53   c-1.89-2.05-4.15-3.61-6.76-4.69c-2.61-1.08-5.49-1.62-8.64-1.62c-4.17,0-8.04,0.93-11.62,2.78c-3.58,1.86-6.68,4.39-9.32,7.61   c-2.63,3.22-4.71,6.97-6.22,11.25c-1.51,4.28-2.27,8.84-2.27,13.69c0,3.79,0.53,7.16,1.59,10.11c1.06,2.95,2.54,5.45,4.43,7.5   c1.89,2.05,4.15,3.61,6.76,4.69c2.61,1.08,5.49,1.62,8.64,1.62C730.75,439.69,734.62,438.75,738.22,436.88 M718.47,427.73   c-2.07-2.71-3.1-6.71-3.1-12.02c0-3.6,0.43-7.04,1.31-10.34c0.87-3.29,2.1-6.2,3.69-8.72c1.59-2.52,3.51-4.53,5.77-6.02   c2.25-1.5,4.78-2.24,7.59-2.24c3.94,0,6.95,1.34,9.03,4.03c2.08,2.69,3.12,6.69,3.12,11.99c0,3.6-0.43,7.05-1.31,10.34   c-0.87,3.3-2.1,6.2-3.69,8.72s-3.52,4.54-5.79,6.05c-2.27,1.52-4.79,2.27-7.56,2.27C723.56,431.79,720.54,430.44,718.47,427.73    M677.75,389.75l0.85-7.27h-13.52l0.34-3.12c0.57-5.11,2.23-9.06,4.97-11.85c2.75-2.78,6.34-4.12,10.77-4.18   c1.67-0.02,3.33-0.02,5.22-0.02h5.21l-9.12,75.58h9.83L702.74,356h-7.38h-6.8h-7.96c-3.67,0-6.95,0.62-9.83,1.85   c-2.88,1.23-5.36,2.91-7.44,5.03c-2.08,2.12-3.75,4.6-5,7.44s-2.07,5.85-2.44,9.03l-0.4,3.12h-8.29l-0.46,4.6   c0,1.25,0.76,1.97,2.27,2.16l5.57,0.68c0,0-1.85,41.93-5.61,55.97c-2,7.46-7.76,6.57-7.76,6.57s4.19,2.57,8.18,2.25   c4.78-0.38,6.24-2.16,8.41-6.5c2.17-4.34,6.73-58.46,6.73-58.46H677.75z M600.52,417.63c0-2.61,0.3-5.15,0.91-7.62   c0.61-2.48,1.45-4.81,2.53-7c1.08-2.19,2.38-4.2,3.89-6.04c1.51-1.83,3.2-3.41,5.06-4.73c1.85-1.32,3.84-2.35,5.96-3.09   c2.12-0.74,4.32-1.11,6.59-1.11h2.41c0.82,0,1.64,0.34,2.47,1.01l-2.44,19.46c-1.06,3.32-2.28,6.37-3.66,9.14   c-1.38,2.78-2.87,5.17-4.46,7.19c-1.59,2.01-3.28,3.59-5.06,4.73c-1.78,1.14-3.6,1.71-5.45,1.71   C603.44,431.28,600.52,426.73,600.52,417.63 M640.92,383.25c-2.27-1-4.57-1.69-6.9-2.1c-2.33-0.4-4.73-0.6-7.19-0.6   c-3.41,0-6.67,0.48-9.77,1.45c-3.11,0.96-6.01,2.33-8.72,4.09c-2.71,1.76-5.16,3.85-7.36,6.25c-2.2,2.41-4.08,5.05-5.65,7.93   c-1.57,2.88-2.78,5.94-3.64,9.17c-0.85,3.24-1.28,6.56-1.28,9.97c0,3.26,0.36,6.15,1.08,8.66c0.72,2.52,1.73,4.64,3.04,6.36   c1.31,1.72,2.89,3.03,4.74,3.92c1.86,0.89,3.92,1.33,6.19,1.33c2.08,0,4.09-0.38,6.02-1.13c1.93-0.75,3.78-1.81,5.54-3.19   c1.76-1.37,3.43-3.04,5-4.99c1.57-1.96,3.04-4.14,4.4-6.54l-1.02,11.53c0,0.99,0.24,1.82,0.71,2.5c0.47,0.68,1.37,1.02,2.7,1.02   h5.23L640.92,383.25z M544.34,438.9l3.3-29.26c1.06-3.14,2.34-5.99,3.83-8.55c1.5-2.56,3.11-4.73,4.86-6.53   c1.74-1.8,3.55-3.19,5.43-4.18c1.88-0.98,3.72-1.48,5.54-1.48c2.46,0,4.27,0.75,5.43,2.24c1.15,1.5,1.73,3.8,1.73,6.9   c0,0.64-0.03,1.32-0.08,2.02c-0.06,0.7-0.12,1.43-0.2,2.19l-4.32,36.65h10.11l4.32-36.65c0.11-0.87,0.19-1.7,0.23-2.5   c0.04-0.79,0.06-1.57,0.06-2.33c0-5.53-1.18-9.73-3.55-12.61c-2.37-2.88-5.69-4.32-9.97-4.32c-4.13,0-8.12,1.29-11.96,3.86   c-3.85,2.58-7.3,6.4-10.37,11.48l0.85-11.14c0-2.27-1.14-3.41-3.41-3.41h-5.06l-6.87,57.61H544.34z M487.29,438.9l3.3-29.26   c1.06-3.14,2.34-5.99,3.83-8.55c1.5-2.56,3.11-4.73,4.86-6.53c1.74-1.8,3.55-3.19,5.42-4.18c1.88-0.98,3.72-1.48,5.54-1.48   c2.46,0,4.27,0.75,5.43,2.24c1.15,1.5,1.73,3.8,1.73,6.9c0,0.64-0.03,1.32-0.09,2.02c-0.06,0.7-0.12,1.43-0.2,2.19l-4.32,36.65   h10.11l4.32-36.65c0.11-0.87,0.19-1.7,0.23-2.5c0.04-0.79,0.06-1.57,0.06-2.33c0-5.53-1.18-9.73-3.55-12.61   c-2.37-2.88-5.69-4.32-9.97-4.32c-4.13,0-8.12,1.29-11.96,3.86c-3.85,2.58-7.3,6.4-10.37,11.48l0.85-11.14   c0-2.27-1.14-3.41-3.41-3.41h-5.06l-6.88,57.61H487.29z M431.47,417.63c0-2.61,0.3-5.15,0.91-7.62c0.61-2.48,1.45-4.81,2.53-7   c1.08-2.19,2.38-4.2,3.89-6.04c1.52-1.83,3.2-3.41,5.06-4.73c1.86-1.32,3.84-2.35,5.96-3.09c2.12-0.74,4.32-1.11,6.59-1.11h2.42   c0.81,0,1.64,0.34,2.47,1.01l-2.44,19.46c-1.06,3.32-2.28,6.37-3.66,9.14c-1.38,2.78-2.87,5.17-4.46,7.19   c-1.59,2.01-3.28,3.59-5.06,4.73c-1.78,1.14-3.6,1.71-5.45,1.71C434.38,431.28,431.47,426.73,431.47,417.63 M471.86,383.25   c-2.27-1-4.57-1.69-6.9-2.1c-2.33-0.4-4.73-0.6-7.19-0.6c-3.41,0-6.67,0.48-9.77,1.45c-3.11,0.96-6.01,2.33-8.72,4.09   c-2.71,1.76-5.16,3.85-7.36,6.25c-2.2,2.41-4.08,5.05-5.65,7.93c-1.57,2.88-2.78,5.94-3.64,9.17c-0.85,3.24-1.28,6.56-1.28,9.97   c0,3.26,0.36,6.15,1.08,8.66c0.72,2.52,1.73,4.64,3.04,6.36c1.31,1.72,2.89,3.03,4.74,3.92c1.86,0.89,3.92,1.33,6.19,1.33   c2.08,0,4.09-0.38,6.02-1.13c1.93-0.75,3.78-1.81,5.54-3.19c1.76-1.37,3.43-3.04,5-4.99c1.57-1.96,3.04-4.14,4.4-6.54l-1.02,11.53   c0,0.99,0.24,1.82,0.71,2.5c0.47,0.68,1.37,1.02,2.7,1.02h5.23L471.86,383.25z M383.37,438.9h9.6l40.51-81.42h-8.52   c-0.91,0-1.71,0.27-2.42,0.82c-0.7,0.55-1.2,1.13-1.51,1.73l-27.78,58.18c-0.61,1.25-1.2,2.6-1.79,4.03   c-0.59,1.44-1.15,2.95-1.68,4.54c-0.19-1.59-0.43-3.11-0.71-4.57c-0.28-1.46-0.58-2.79-0.88-4.01l-13.58-58.18   c-0.19-0.72-0.55-1.33-1.08-1.82c-0.53-0.49-1.27-0.74-2.22-0.74h-8.46L383.37,438.9z"/>
</g>
</svg>